{
  "accessors": [
    {
      "bufferView": 0,
      "componentType": 5125,
      "count": 324,
      "type": "SCALAR"
    },
    {
      "bufferView": 1,
      "componentType": 5126,
      "count": 96,
      "max": [
        120.065795898438,
        130.0,
        305.000244140625
      ],
      "min": [
        -120.065795898438,
        -130.0,
        -305.000244140625
      ],
      "type": "VEC3"
    },
    {
      "bufferView": 2,
      "componentType": 5126,
      "count": 96,
      "type": "VEC3"
    },
    {
      "bufferView": 3,
      "componentType": 5126,
      "count": 96,
      "type": "VEC4"
    },
    {
      "bufferView": 4,
      "componentType": 5126,
      "count": 96,
      "type": "VEC2"
    }
  ],
  "asset": {
    "generator": "Adobe Substance 3D Painter 11.0.1",
    "version": "2.0"
  },
  "bufferViews": [
    {
      "buffer": 0,
      "byteLength": 1296,
      "target": 34963
    },
    {
      "buffer": 0,
      "byteLength": 1152,
      "byteOffset": 1296,
      "target": 34962
    },
    {
      "buffer": 0,
      "byteLength": 1152,
      "byteOffset": 2448,
      "target": 34962
    },
    {
      "buffer": 0,
      "byteLength": 1536,
      "byteOffset": 3600,
      "target": 34962
    },
    {
      "buffer": 0,
      "byteLength": 768,
      "byteOffset": 5136,
      "target": 34962
    }
  ],
  "buffers": [
    {
      "byteLength": 5904,
      "uri": "container.bin"
    }
  ],
  "images": [
    {
      "uri": "DefaultMaterial_baseColor.png"
    },
    {
      "uri": "DefaultMaterial_occlusionRoughnessMetallic.png"
    },
    {
      "uri": "DefaultMaterial_normal.png"
    }
  ],
  "materials": [
    {
      "alphaMode": "OPAQUE",
      "name": "DefaultMaterial",
      "normalTexture": {
        "index": 2
      },
      "occlusionTexture": {
        "index": 1
      },
      "pbrMetallicRoughness": {
        "baseColorTexture": {
          "index": 0
        },
        "metallicRoughnessTexture": {
          "index": 1
        }
      }
    }
  ],
  "meshes": [
    {
      "name": "container_low",
      "primitives": [
        {
          "attributes": {
            "NORMAL": 2,
            "POSITION": 1,
            "TANGENT": 3,
            "TEXCOORD_0": 4
          },
          "indices": 0,
          "material": 0,
          "mode": 4
        }
      ]
    }
  ],
  "nodes": [
    {
      "children": [
        1
      ],
      "name": "RootNode",
      "scale": [
        0.00999999977648258,
        0.00999999977648258,
        0.00999999977648258
      ]
    },
    {
      "children": [
        2
      ],
      "name": "container_low",
      "translation": [
        0.0,
        130.0,
        0.0
      ]
    },
    {
      "mesh": 0,
      "name": "container_low"
    }
  ],
  "samplers": [
    {
      "magFilter": 9729,
      "minFilter": 9985,
      "wrapS": 10497,
      "wrapT": 10497
    }
  ],
  "scene": 0,
  "scenes": [
    {
      "name": "Scene",
      "nodes": [
        0
      ]
    }
  ],
  "textures": [
    {
      "sampler": 0,
      "source": 0
    },
    {
      "sampler": 0,
      "source": 1
    },
    {
      "sampler": 0,
      "source": 2
    }
  ]
}